<?xml version="1.0" encoding="utf-8"?>
<!-- Generator: Adobe Illustrator 27.5.0, SVG Export Plug-In . SVG Version: 6.00 Build 0)  -->
<svg version="1.1" xmlns="http://www.w3.org/2000/svg" xmlns:xlink="http://www.w3.org/1999/xlink" x="0px" y="0px"
	 viewBox="0 0 500 500" style="enable-background:new 0 0 500 500;" xml:space="preserve">
<g id="BACKGROUND">
	<g>
		<defs>
			<rect id="SVGID_1_" width="500" height="500"/>
		</defs>
		<clipPath id="SVGID_00000052806541431276085360000013769189377102514604_">
			<use xlink:href="#SVGID_1_"  style="overflow:visible;"/>
		</clipPath>
		<g style="clip-path:url(#SVGID_00000052806541431276085360000013769189377102514604_);">
			<rect style="fill:#E4EFF7;" width="500" height="500"/>
			<path style="fill:#BCDAEA;" d="M451.618,305.033c-19.519,11.591-38.91,22.867-61.369,27.902
				c-14.025,3.145-28.605,1.586-42.835,2.681c-12.199,0.938-24.935-1.194-36.767-4.456c-24.933-6.875-48.357-19.767-74.451-22.063
				c-40.561-3.57-81.09,19.79-120.847,10.995c-22.074-4.884-40.697-19.085-60.483-30.023C35.081,279.13,11,271.26-9.837,280.031
				l-2.935,230.407h534.526V290.247C496.664,290.24,473.758,291.886,451.618,305.033z"/>
			<g>
				<g>
					<g>
						<g>
							<path style="fill:#ABCC7D;" d="M133.937,294.737c0-0.421-3.117-17.945,4.887-18.198c8.004-0.253,5.982,18.198,5.982,17.945
								C144.806,294.231,133.937,294.737,133.937,294.737z"/>
							<path style="fill:#7DAB3D;" d="M138.824,276.539c-1.648,0.079-2.618,3.538-1.878,17.946c2.107,0.114,4.983-0.085,4.983-0.085
								S142.242,276.375,138.824,276.539z"/>
							<path style="fill:#EF4563;" d="M138.824,276.539c-0.13-0.006-4.279,0.147-4.674-4.135c-0.395-4.282,3.953-6.456,7.839-4.414
								C145.875,270.033,144.025,276.786,138.824,276.539z"/>
							<path style="fill:#AC1940;" d="M138.988,276.539c-0.051-0.006-1.693,0.147-1.85-4.135c-0.156-4.282,1.564-6.456,3.102-4.414
								C141.779,270.033,141.047,276.786,138.988,276.539z"/>
						</g>
						<g>
							<path style="fill:#313F66;" d="M125.273,293.251c0.394,1.639,1.429,5.931,2.507,10.269c1.15,4.621,2.348,9.295,2.875,10.866
								c10.177,0,17.763,0,17.763,0l3.821-13.265l2.267-7.87H125.273z"/>
							<path style="fill:#192A47;" d="M152.24,301.12l-3.821,13.265c0,0-7.586,0-17.763,0c-0.527-1.571-1.725-6.245-2.875-10.866
								C138.312,305.168,143.734,298.979,152.24,301.12z"/>
						</g>
					</g>
					<g>
						<g>
							<path style="fill:#65822D;" d="M54.206,269.898c-0.202-0.225-7.136,13.55,2.841,20.854
								C58.691,287.225,62.394,278.995,54.206,269.898z"/>
							<path style="fill:#65822D;" d="M66.341,270.755c0.202-0.225,7.136,13.55-2.841,20.854
								C61.857,288.082,58.154,279.852,66.341,270.755z"/>
							<path style="fill:#7DAB3D;" d="M46.602,277.124c-0.274-0.129-1.32,15.257,10.709,18.118
								C57.458,291.354,57.678,282.332,46.602,277.124z"/>
							<path style="fill:#7DAB3D;" d="M72.898,277.124c0.274-0.129,1.32,15.257-10.709,18.118
								C62.042,291.354,61.822,282.332,72.898,277.124z"/>
							<path style="fill:#8CB661;" d="M60.634,275.92c0.201-0.273,9.451,14.309-0.859,23.552
								C57.554,295.724,52.517,286.963,60.634,275.92z"/>
						</g>
						<g>
							<path style="fill:#313F66;" d="M45.78,293.251c0.394,1.639,1.429,5.931,2.507,10.269c1.15,4.621,2.348,9.295,2.875,10.866
								c10.177,0,17.763,0,17.763,0l3.821-13.265l2.267-7.87H45.78z"/>
							<path style="fill:#192A47;" d="M72.747,301.12l-3.821,13.265c0,0-7.586,0-17.763,0c-0.528-1.571-1.726-6.245-2.875-10.866
								C58.819,305.168,64.241,298.979,72.747,301.12z"/>
						</g>
					</g>
					<g>
						<g>
							<g>
								<path style="fill:#7DAB3D;" d="M84.48,270.498c-3.175,0.208-3.019,5.777-1.717,8.952c1.301,3.175,5.465,6.922,11.658,6.662
									c0-5.465,0-6.766,0-6.766s-1.236,1.699-3.747,0.364c-1.665-0.885-1.972-3.083-2.498-5.413
									C87.811,272.684,87.655,270.29,84.48,270.498z"/>
								<path style="fill:#ABCC7D;" d="M83.892,274.711c-0.177-0.433-0.446-0.802-0.662-1.212c-0.083-0.158-0.346-0.056-0.293,0.118
									c0.136,0.444,0.205,0.896,0.386,1.328C83.457,275.266,84.025,275.037,83.892,274.711z"/>
								<path style="fill:#ABCC7D;" d="M85.696,273.01c-0.013-0.232-0.018-0.463-0.02-0.696c-0.002-0.349-0.524-0.353-0.541-0.005
									c-0.011,0.233-0.026,0.464-0.049,0.696c-0.022,0.229-0.064,0.455-0.017,0.682c0.064,0.311,0.544,0.305,0.619,0.005
									C85.744,273.469,85.709,273.239,85.696,273.01z"/>
								<path style="fill:#ABCC7D;" d="M86.997,273.933c-0.075,0.239-0.157,0.473-0.243,0.709c-0.083,0.228-0.21,0.462-0.185,0.709
									c0.034,0.333,0.443,0.481,0.641,0.178c0.134-0.205,0.134-0.455,0.165-0.693c0.033-0.255,0.068-0.509,0.112-0.762
									C87.542,273.757,87.098,273.614,86.997,273.933z"/>
								<path style="fill:#ABCC7D;" d="M84.11,277.865c-0.217-0.209-0.421-0.422-0.609-0.657c-0.093-0.116-0.291-0.101-0.39-0.004
									c-0.117,0.115-0.095,0.272-0.004,0.39c0.169,0.219,0.312,0.452,0.451,0.692c0.105,0.181,0.348,0.227,0.514,0.101
									C84.233,278.264,84.262,278.011,84.11,277.865z"/>
								<path style="fill:#ABCC7D;" d="M86.511,277.958c-0.209-0.361-0.464-0.692-0.667-1.056c-0.206-0.37-0.75-0.049-0.566,0.325
									c0.185,0.377,0.315,0.78,0.494,1.16C86.004,278.879,86.792,278.44,86.511,277.958z"/>
								<path style="fill:#ABCC7D;" d="M88.35,277.248c0.003-0.299-0.44-0.3-0.462-0.006c-0.029,0.415-0.167,0.823-0.13,1.24
									c0.028,0.318,0.545,0.46,0.609,0.087C88.443,278.126,88.345,277.695,88.35,277.248z"/>
								<path style="fill:#ABCC7D;" d="M86.494,281.255c-0.432-0.17-0.872-0.309-1.313-0.451c-0.25-0.081-0.429,0.308-0.187,0.429
									c0.439,0.22,0.875,0.438,1.328,0.629C86.692,282.019,86.872,281.404,86.494,281.255z"/>
								<path style="fill:#ABCC7D;" d="M88.172,280.781c-0.216-0.257-0.428-0.517-0.635-0.781c-0.286-0.363-0.92,0.117-0.647,0.496
									c0.197,0.273,0.389,0.549,0.577,0.828c0.194,0.289,0.363,0.619,0.751,0.628c0.159,0.004,0.316-0.115,0.357-0.269
									C88.674,281.306,88.396,281.047,88.172,280.781z"/>
								<path style="fill:#ABCC7D;" d="M90.543,281.538c-0.089-0.469-0.279-0.916-0.445-1.362c-0.188-0.505-1.007-0.285-0.814,0.222
									c0.181,0.476,0.343,0.972,0.602,1.412C90.101,282.172,90.617,281.928,90.543,281.538z"/>
								<path style="fill:#ABCC7D;" d="M89.829,283.65c-0.442-0.112-0.929-0.079-1.383-0.095c-0.475-0.016-0.477,0.715-0.004,0.737
									c0.456,0.022,0.931,0.087,1.383,0.012C90.162,284.248,90.139,283.728,89.829,283.65z"/>
								<path style="fill:#ABCC7D;" d="M92.787,282.241c-0.111-0.306-0.221-0.613-0.332-0.919c-0.065-0.18-0.239-0.303-0.436-0.251
									c-0.179,0.048-0.31,0.252-0.251,0.436c0.101,0.309,0.201,0.619,0.301,0.928c0.062,0.191,0.255,0.316,0.455,0.262
									C92.707,282.647,92.855,282.431,92.787,282.241z"/>
								<path style="fill:#ABCC7D;" d="M92.377,284.18c-0.177-0.024-0.362,0.042-0.533,0.086c-0.17,0.044-0.34,0.087-0.51,0.131
									c-0.436,0.112-0.256,0.783,0.182,0.676c0.171-0.041,0.342-0.083,0.512-0.124c0.172-0.042,0.359-0.069,0.505-0.175
									C92.8,284.58,92.696,284.223,92.377,284.18z"/>
							</g>
							<g>
								<path style="fill:#8CB661;" d="M93.55,295.593c0,0-0.108-17.134-0.108-23.277s2.445-9.469,6.756-9.469
									c4.31,0,5.96,2.357,5.96,10.116s0,22.522,0,22.522L93.55,295.593z"/>
								<path style="fill:#ABCC7D;" d="M96.329,268.755c-0.125-0.556-0.923-0.311-0.839,0.23c0.05,0.324,0.088,0.649,0.14,0.973
									c0.05,0.311,0.071,0.645,0.241,0.914c0.184,0.292,0.722,0.285,0.795-0.103C96.785,270.139,96.468,269.371,96.329,268.755z"
									/>
								<path style="fill:#ABCC7D;" d="M100.905,266.634c-0.003-0.536-0.794-0.53-0.827-0.002c-0.054,0.849-0.195,1.715-0.18,2.564
									c0.011,0.676,0.99,0.658,1.04-0.003C101.001,268.349,100.91,267.481,100.905,266.634z"/>
								<path style="fill:#ABCC7D;" d="M104.01,269.606c-0.112,0.554-0.28,1.073-0.443,1.612c-0.221,0.729,0.991,0.959,1.068,0.14
									c0.049-0.516,0.085-1.017,0.182-1.528C104.918,269.306,104.117,269.076,104.01,269.606z"/>
								<path style="fill:#ABCC7D;" d="M100.49,273.917c-0.033-0.699-1.108-0.702-1.093,0.005c0.013,0.635,0.028,1.27,0.036,1.905
									c0.01,0.743,1.192,0.732,1.151-0.007C100.549,275.185,100.52,274.551,100.49,273.917z"/>
								<path style="fill:#ABCC7D;" d="M96.661,276.634c-0.067-0.45-0.86-0.351-0.802,0.106c0.083,0.659,0.052,1.388,0.223,2.028
									c0.134,0.503,0.919,0.405,0.912-0.123C96.985,277.983,96.76,277.291,96.661,276.634z"/>
								<path style="fill:#ABCC7D;" d="M102.919,275.963c-0.134,0.699-0.28,1.397-0.4,2.099c-0.102,0.6,0.805,0.866,0.926,0.255
									c0.138-0.699,0.251-1.404,0.374-2.105C103.922,275.626,103.033,275.37,102.919,275.963z"/>
								<path style="fill:#ABCC7D;" d="M99.267,281.736c-0.049-0.262-0.366-0.41-0.607-0.344c-0.28,0.077-0.386,0.343-0.344,0.607
									c0.085,0.529,0.102,1.139,0.342,1.622c0.226,0.454,0.813,0.174,0.86-0.233C99.579,282.866,99.364,282.251,99.267,281.736z"
									/>
								<path style="fill:#ABCC7D;" d="M103.827,282.18c-0.228,0.602-0.581,1.26-0.684,1.895c-0.092,0.565,0.655,0.966,0.976,0.407
									c0.345-0.6,0.499-1.372,0.717-2.028C105.049,281.808,104.061,281.562,103.827,282.18z"/>
								<path style="fill:#ABCC7D;" d="M96.741,285.957c-0.161-0.508-0.35-1.007-0.528-1.509c-0.113-0.318-0.433-0.527-0.773-0.431
									c-0.313,0.089-0.54,0.452-0.431,0.773c0.172,0.504,0.334,1.013,0.523,1.511c0.12,0.317,0.43,0.531,0.777,0.433
									C96.628,286.643,96.844,286.281,96.741,285.957z"/>
								<path style="fill:#ABCC7D;" d="M102.649,287.385c-0.25,0.657-0.521,1.304-0.792,1.952c-0.258,0.618,0.817,0.948,1.029,0.28
									c0.211-0.665,0.42-1.329,0.653-1.987C103.739,287.065,102.858,286.837,102.649,287.385z"/>
								<path style="fill:#ABCC7D;" d="M96.604,290.97c-0.128-0.505-0.39-1.014-0.55-1.484c-0.191-0.562-1.083-0.324-0.895,0.247
									c0.138,0.417,0.267,0.837,0.388,1.26c0.095,0.332,0.155,0.74,0.518,0.893c0.137,0.058,0.305,0.049,0.426-0.039
									c0.141-0.103,0.197-0.292,0.184-0.466C96.664,291.245,96.639,291.108,96.604,290.97z"/>
								<path style="fill:#ABCC7D;" d="M100.687,288.544c-0.015-0.137-0.031-0.273-0.046-0.409
									c-0.036-0.318-0.072-0.637-0.107-0.955c-0.033-0.298-0.234-0.553-0.557-0.552c-0.279,0.001-0.581,0.257-0.552,0.557
									c0.052,0.546,0.1,1.092,0.159,1.638c0.033,0.304,0.241,0.565,0.569,0.563c0.284-0.001,0.594-0.263,0.563-0.569
									C100.707,288.726,100.697,288.635,100.687,288.544z"/>
								<path style="fill:#ABCC7D;" d="M104.495,290.336c-0.193,0.277-0.386,0.553-0.579,0.83c-0.188,0.269-0.417,0.542-0.47,0.875
									c-0.056,0.347,0.287,0.712,0.638,0.492c0.307-0.193,0.483-0.504,0.672-0.805c0.19-0.303,0.379-0.605,0.569-0.908
									C105.657,290.29,104.844,289.836,104.495,290.336z"/>
							</g>
						</g>
						<g>
							<path style="fill:#313F66;" d="M85.506,293.251c0.394,1.639,1.429,5.931,2.507,10.269c1.15,4.621,2.348,9.295,2.875,10.866
								c10.177,0,17.763,0,17.763,0l3.821-13.265l2.267-7.87H85.506z"/>
							<path style="fill:#192A47;" d="M112.473,301.12l-3.821,13.265c0,0-7.586,0-17.763,0c-0.528-1.571-1.726-6.245-2.875-10.866
								C98.545,305.168,103.967,298.979,112.473,301.12z"/>
						</g>
					</g>
					<g>
						<g>
							<rect x="25.418" y="332.57" style="fill:#654357;" width="10.824" height="60.699"/>
						</g>
						<rect x="25.418" y="332.57" style="fill:#47293C;" width="10.824" height="16.705"/>
						<g>
							<rect x="25.418" y="332.57" style="fill:#654357;" width="10.824" height="60.699"/>
							<rect x="25.418" y="332.57" style="fill:#47293C;" width="10.824" height="16.705"/>
						</g>
						<rect x="25.418" y="312.878" style="fill:#654357;" width="163.225" height="29.44"/>
						<rect x="36.242" y="329.655" style="fill:#47293C;" width="135.724" height="12.663"/>
						<g>
							<rect x="177.825" y="332.57" style="fill:#654357;" width="10.824" height="60.699"/>
							<rect x="177.825" y="332.57" style="fill:#47293C;" width="10.824" height="16.705"/>
						</g>
						<g>
							<rect x="177.825" y="332.57" style="fill:#654357;" width="10.824" height="60.699"/>
							<rect x="177.825" y="332.57" style="fill:#47293C;" width="10.824" height="16.705"/>
						</g>
					</g>
				</g>
				<g>
					<g>
						<g>
							<path style="fill:#ABCC7D;" d="M353.22,239.789c2.2,7.192-3.942,13.06,0.77,20.67c4.712,7.612,14.428,4.726,16.305,9.573
								c1.878,4.846-1.395,11.37,2.15,15.224c3.545,3.855,11.228,2.96,14.524,7.154c0.109,0.138,0.21,0.282,0.305,0.43
								c0.405,0.631,0.716,1.316,1.003,2.001c0.361,0.858,0.68,1.734,0.995,2.609c0.352,0.986,0.697,1.975,1.056,2.959
								c0.373,1.025,0.762,2.046,1.188,3.052c0.418,0.982,0.871,1.95,1.395,2.885c0.482,0.863,1.027,1.701,1.672,2.463
								c0.578,0.683,1.245,1.307,2.023,1.783c0.736,0.45,1.57,0.751,2.443,0.844c0.56,0.061,1.133,0.049,1.691-0.045
								c0.343-0.056,0.678-0.143,0.999-0.263c0.267-0.098,0.525-0.221,0.769-0.366c0.126-0.075,0.251-0.155,0.372-0.237
								c0.628-0.432,1.173-0.968,1.576-1.6c0.453-0.713,0.712-1.518,0.821-2.341c0.119-0.898,0.067-1.81-0.071-2.702
								c-0.154-0.993-0.416-1.969-0.73-2.927c-0.335-1.019-0.732-2.021-1.155-3.009c-0.427-0.993-0.883-1.975-1.347-2.953
								c-0.436-0.919-0.88-1.835-1.305-2.757c-0.367-0.798-0.726-1.6-1.028-2.421c-0.231-0.626-0.443-1.274-0.518-1.937
								c-0.596-5.202,5.671-9.513,5.501-14.627c-0.17-5.114-7.248-7.775-9.351-12.537c-2.104-4.762,7.082-8.93,5.07-17.549
								c-2.011-8.618-10.719-8.944-14.269-15.633c-3.55-6.689,0.286-13.42-0.131-18.812c-0.415-5.393-4.149-7.822-9.236-9.128
								c-5.087-1.307-7.246-0.872-12.805-9.277c-5.559-8.404-11.375-11.781-16.236-9.721c-5.038,1.634-6.874,7.867-4.914,17.613
								c1.96,9.748,0.067,10.824-2.72,15.07c-2.788,4.245-3.779,8.437-0.214,12.654C343.381,230.147,351.02,232.597,353.22,239.789z
								"/>
							<path style="fill:#8CB661;" d="M353.22,239.789c2.2,7.192-3.942,13.06,0.77,20.67c4.712,7.612,14.428,4.726,16.305,9.573
								c1.878,4.846-1.395,11.37,2.15,15.224c3.545,3.855,11.228,2.96,14.524,7.154c0.109,0.138,0.21,0.282,0.305,0.43
								c0.405,0.631,0.716,1.316,1.003,2.001c0.361,0.858,0.68,1.734,0.995,2.609c0.352,0.986,0.697,1.975,1.056,2.959
								c0.373,1.025,0.762,2.046,1.188,3.052c0.418,0.982,0.871,1.95,1.395,2.885c0.482,0.863,1.027,1.701,1.672,2.463
								c0.578,0.683,1.245,1.307,2.023,1.783c0.736,0.45,1.57,0.751,2.443,0.844c0.56,0.061,1.133,0.049,1.691-0.045
								c0.343-0.056,0.678-0.143,0.999-0.263l-54.074-130.534c-5.038,1.634-6.874,7.867-4.914,17.613
								c1.96,9.748,0.067,10.824-2.72,15.07c-2.788,4.245-3.779,8.437-0.214,12.654C343.381,230.147,351.02,232.597,353.22,239.789z
								"/>
						</g>
						<g>
							<path style="fill:#8CB661;" d="M471.631,238.227c-2.2,7.192,3.942,13.06-0.769,20.67c-4.712,7.612-14.428,4.726-16.305,9.572
								c-1.878,4.846,1.395,11.37-2.15,15.224c-3.545,3.855-11.228,2.96-14.524,7.154c-0.109,0.138-0.21,0.282-0.305,0.43
								c-0.405,0.631-0.716,1.316-1.003,2.001c-0.361,0.859-0.68,1.734-0.995,2.609c-0.352,0.986-0.697,1.975-1.055,2.959
								c-0.373,1.025-0.762,2.046-1.188,3.052c-0.418,0.982-0.871,1.95-1.395,2.885c-0.482,0.863-1.027,1.701-1.672,2.463
								c-0.578,0.683-1.245,1.307-2.023,1.783c-0.737,0.45-1.57,0.751-2.443,0.844c-0.56,0.061-1.133,0.048-1.691-0.045
								c-0.343-0.056-0.678-0.143-0.999-0.263c-0.267-0.098-0.525-0.221-0.769-0.366c-0.126-0.075-0.251-0.155-0.371-0.237
								c-0.629-0.432-1.173-0.968-1.577-1.6c-0.453-0.712-0.712-1.518-0.821-2.341c-0.119-0.898-0.067-1.81,0.071-2.702
								c0.154-0.993,0.416-1.969,0.73-2.927c0.335-1.019,0.732-2.021,1.155-3.009c0.427-0.993,0.883-1.975,1.347-2.953
								c0.436-0.919,0.88-1.835,1.305-2.757c0.367-0.798,0.726-1.599,1.028-2.421c0.231-0.627,0.443-1.274,0.518-1.937
								c0.596-5.202-5.671-9.513-5.501-14.627c0.17-5.114,7.248-7.775,9.35-12.537c2.104-4.762-7.082-8.93-5.07-17.549
								c2.011-8.618,10.719-8.944,14.269-15.633s-0.285-13.42,0.131-18.812c0.415-5.393,4.149-7.822,9.236-9.127
								c5.087-1.308,7.246-0.872,12.805-9.277c5.559-8.404,11.375-11.781,16.236-9.721c5.038,1.634,6.874,7.867,4.914,17.613
								c-1.96,9.748-0.067,10.824,2.72,15.069c2.788,4.245,3.779,8.437,0.213,12.654
								C481.47,228.584,473.831,231.034,471.631,238.227z"/>
							<path style="fill:#ABCC7D;" d="M471.631,238.227c-2.2,7.192,3.942,13.06-0.769,20.67c-4.712,7.612-14.428,4.726-16.305,9.572
								c-1.878,4.846,1.395,11.37-2.15,15.224c-3.545,3.855-11.228,2.96-14.524,7.154c-0.109,0.138-0.21,0.282-0.305,0.43
								c-0.405,0.631-0.716,1.316-1.003,2.001c-0.361,0.859-0.68,1.734-0.995,2.609c-0.352,0.986-0.697,1.975-1.055,2.959
								c-0.373,1.025-0.762,2.046-1.188,3.052c-0.418,0.982-0.871,1.95-1.395,2.885c-0.482,0.863-1.027,1.701-1.672,2.463
								c-0.578,0.683-1.245,1.307-2.023,1.783c-0.737,0.45-1.57,0.751-2.443,0.844c-0.56,0.061-1.133,0.048-1.691-0.045
								c-0.343-0.056-0.678-0.143-0.999-0.263l54.074-130.534c5.038,1.634,6.874,7.867,4.914,17.613
								c-1.96,9.748-0.067,10.824,2.72,15.069c2.788,4.245,3.779,8.437,0.213,12.654
								C481.47,228.584,473.831,231.034,471.631,238.227z"/>
						</g>
						<g>
							<path style="fill:#8CB661;" d="M432.725,214.356c0.862,8.863,10.343,12.817,8.62,23.179
								c-1.724,10.363-13.793,11.181-13.648,17.317c0.143,6.135,6.752,11.999,4.598,17.726c-2.155,5.726-11.062,7.907-12.786,13.907
								c-0.058,0.198-0.103,0.399-0.14,0.601c-0.159,0.865-0.188,1.751-0.193,2.627c-0.006,1.099,0.042,2.199,0.095,3.296
								c0.062,1.236,0.134,2.472,0.188,3.708c0.058,1.288,0.095,2.577,0.084,3.866c-0.013,1.258-0.07,2.516-0.221,3.767
								c-0.138,1.153-0.356,2.305-0.72,3.414c-0.327,0.994-0.778,1.96-1.421,2.807c-0.608,0.802-1.392,1.478-2.315,1.942
								c-0.591,0.298-1.231,0.521-1.89,0.648c-0.405,0.08-0.815,0.121-1.226,0.121c-0.341,0.001-0.681-0.028-1.018-0.087
								c-0.174-0.031-0.349-0.068-0.52-0.109c-0.893-0.219-1.741-0.586-2.477-1.119c-0.828-0.601-1.483-1.385-1.981-2.25
								c-0.543-0.944-0.904-1.974-1.159-3.018c-0.285-1.162-0.442-2.349-0.534-3.538c-0.096-1.265-0.117-2.537-0.101-3.805
								c0.017-1.274,0.072-2.549,0.137-3.822c0.061-1.196,0.132-2.392,0.181-3.588c0.04-1.034,0.07-2.069,0.028-3.102
								c-0.031-0.788-0.093-1.592-0.314-2.357c-1.724-6-10.631-8.181-12.786-13.907c-2.155-5.727,4.454-11.59,4.597-17.726
								c0.145-6.135-11.924-6.953-13.648-17.317c-1.724-10.362,7.757-14.316,8.619-23.179c0.862-8.863-6.465-14.725-8.475-20.861
								c-2.012-6.135,1.005-10.363,6.034-13.907c5.027-3.545,7.614-3.954,9.912-15.545c2.298-11.589,7.183-17.724,13.503-17.452
								c6.321-0.272,11.207,5.864,13.505,17.452c2.298,11.59,4.886,11.999,9.912,15.545c5.029,3.544,8.045,7.772,6.034,13.907
								C439.189,199.63,431.863,205.493,432.725,214.356z"/>
							<path style="fill:#ABCC7D;" d="M432.725,214.356c0.862,8.863,10.343,12.817,8.62,23.179
								c-1.724,10.363-13.793,11.181-13.648,17.317c0.143,6.135,6.752,11.999,4.598,17.726c-2.155,5.726-11.062,7.907-12.786,13.907
								c-0.058,0.198-0.103,0.399-0.14,0.601c-0.159,0.865-0.188,1.751-0.193,2.627c-0.006,1.099,0.042,2.199,0.095,3.296
								c0.062,1.236,0.134,2.472,0.188,3.708c0.058,1.288,0.095,2.577,0.084,3.866c-0.013,1.258-0.07,2.516-0.221,3.767
								c-0.138,1.153-0.356,2.305-0.72,3.414c-0.327,0.994-0.778,1.96-1.421,2.807c-0.608,0.802-1.392,1.478-2.315,1.942
								c-0.591,0.298-1.231,0.521-1.89,0.648c-0.405,0.08-0.815,0.121-1.226,0.121v-166.69c6.321-0.272,11.207,5.864,13.505,17.452
								c2.298,11.59,4.886,11.999,9.912,15.545c5.029,3.544,8.045,7.772,6.034,13.907
								C439.189,199.63,431.863,205.493,432.725,214.356z"/>
						</g>
					</g>
					<g>
						<g>
							<rect x="382.004" y="383.431" style="fill:#281221;" width="10.576" height="9.838"/>
							<rect x="430.578" y="383.431" style="fill:#281221;" width="10.576" height="9.838"/>
							<rect x="406.189" y="383.431" style="fill:#281221;" width="10.576" height="9.838"/>
						</g>
						<polygon style="fill:#654357;" points="452.779,300.008 448.181,345.021 443.949,386.455 379.207,386.455 373.57,331.267 
							370.378,300.008 						"/>
						<path style="fill:#47293C;" d="M448.181,345.021l-4.232,41.434h-64.742l-5.637-55.188c3.261-0.702,6.844-0.418,10.018,0.65
							c5.948,2.004,10.852,6.202,15.742,10.138c4.888,3.936,10.164,7.81,16.336,8.952c7.843,1.45,15.691-1.722,23.324-4.038
							C441.935,346.077,445.068,345.334,448.181,345.021z"/>
					</g>
				</g>
			</g>
			<rect y="391.656" style="fill:#FFD142;" width="500" height="108.343"/>
			<ellipse style="fill:#FFB700;" cx="263.552" cy="422.943" rx="129.178" ry="27.102"/>
			<ellipse style="fill:#FFB700;" cx="115.552" cy="447.46" rx="63" ry="16"/>
			<g>
				<circle style="fill:#BCDAEA;" cx="415.19" cy="69.613" r="32.184"/>
				<g>
					
						<ellipse transform="matrix(0.8945 -0.4471 0.4471 0.8945 15.1038 189.0352)" style="fill:#654357;" cx="408.092" cy="62.515" rx="32.184" ry="32.184"/>
					<circle style="fill:#FFFFFF;" cx="408.092" cy="62.515" r="25.526"/>
					<path style="fill:#654357;" d="M411.575,62.515c0,1.924-1.559,3.483-3.483,3.483c-1.924,0-3.483-1.559-3.483-3.483
						c0-1.924,1.559-3.483,3.483-3.483C410.015,59.032,411.575,60.591,411.575,62.515z"/>
					<path style="fill:#654357;" d="M409.204,41.727c-0.039-1.266-2.443-1.287-2.482-0.014c-0.211,6.911-0.444,13.864-0.104,20.773
						c-0.125,0.725,0.669,1.078,1.427,1.023c0.009-0.001,0.019,0,0.029-0.001c0.618-0.054,1.203-0.381,1.234-1.009
						C409.648,55.59,409.415,48.637,409.204,41.727z"/>
					<path style="fill:#654357;" d="M409.033,63.922c0.922-0.983-0.952-2.887-1.94-1.961c-5.362,5.03-6.007,5.249-10.935,10.712
						c-0.643,0.447-0.285,1.337,0.353,1.891c0.008,0.007,0.015,0.015,0.023,0.021c0.526,0.445,1.232,0.659,1.729,0.211
						C403.725,69.868,404.003,69.284,409.033,63.922z"/>
				</g>
			</g>
			<g>
				<polygon style="fill:#BCDAEA;" points="206.501,71.633 192.471,57.603 63.563,209.222 77.245,222.904 206.501,222.904 				"/>
				<g>
					<rect x="63.563" y="57.603" style="fill:#FFFFFF;" width="128.908" height="151.619"/>
					<path style="fill:#E4EFF7;" d="M72.898,66.938v132.948h110.239V66.938H72.898z"/>
					<path style="fill:#FFFFFF;" d="M183.136,125.828v74.059H72.898v-83.343c1.673,0.025,3.337,0.431,4.808,1.235
						c3.613,1.976,5.841,6.23,5.405,10.325c2.186-1.825,5.464-2.163,8.159-1.245c2.696,0.92,4.837,3.311,5.453,6.091
						c2.309-2.446,6.581-2.626,9.52-0.993c-0.101-2.925,1.551-5.903,4.145-7.261c2.594-1.357,5.956-1.089,8.302,0.661
						c0.436-1.501,1.585-3.504,2.681-4.618c2.595-2.639,6.896-3.516,10.22-1.895c3.326,1.621,5.293,5.733,4.254,9.285
						c2.729-1.014,6.177-0.288,8.635,1.273c2.457,1.56,4.12,4.31,4.364,7.211c2.547-1.252,6.038-0.686,7.919,1.439
						c1.883,2.124,2.133,5.526,0.582,7.904c1.164-0.85,2.993-0.904,4.364-0.453c1.369,0.451,2.494,1.59,2.927,2.967
						c0.895-2.452,3.44-4.279,6.034-3.988c-2.286-3.06-2.556-7.295-1.027-10.796c1.529-3.501,4.766-6.136,8.423-7.235
						C179.709,125.96,181.425,125.762,183.136,125.828z"/>
					<path style="fill:#8CB661;" d="M183.136,154.094v45.792H72.898v-43.618c17.78-9.299,43.136-21.798,49.143-20.775
						c6.777,1.154,21.93,12.311,31.993,19.906c4.014,3.029,7.219,5.491,8.76,6.524C169.603,159.481,177.876,154.753,183.136,154.094
						z"/>
					<circle style="fill:#FFD142;" cx="94.484" cy="89.514" r="11.436"/>
					<path style="fill:#7DAB3D;" d="M162.794,161.922c0,0-36.007,20.248-56.03,22.604c22.404-11.949,38.495-22.793,47.27-29.127
						C158.048,158.428,161.253,160.889,162.794,161.922z"/>
					<path style="fill:#7DAB3D;" d="M183.136,192.079v7.807H72.898v-15.523h17.295c6.065,0,12.058,1.316,17.565,3.858l0,0
						c5.507,2.542,11.5,3.858,17.565,3.858H183.136z"/>
				</g>
			</g>
		</g>
	</g>
</g>
<g id="OBJECTS">
	<g>
		<g>
			<g>
				<path style="fill:#EF4563;" d="M267.844,229.002c-24.069,0.912-48.359,11.14-60.513,28.864
					c-12.153,17.723-25.572,59.247-25.572,59.247s-36.713,11.647-37.725,53.423c-1.013,41.776,25.572,55.702,59.753,63.551
					c34.181,7.849,100.57,10.464,141.534-7.089c40.963-17.554,29.117-91.402,25.572-107.859
					C367.348,302.68,354.688,225.71,267.844,229.002z"/>
				<path style="fill:#E0204A;" d="M177.024,372.163c5.972,27.049,51.456,32.048,81.315,32.75
					c29.86,0.703,68.685-2.891,85.547-34.156c16.862-31.265-2.459-100.468-25.293-114.169c-22.834-13.7-79.391-16.862-93.091,9.133
					c-13.7,25.995-17.916,72.717-17.916,72.717S168.571,333.875,177.024,372.163z"/>
			</g>
			<g>
				<g>
					<path style="fill:#313F66;" d="M246.236,207.711c0,0,1.402-9.517,2.25-10.429c2.411,0,2.411,0,2.411,0l-1.759,11.533
						L246.236,207.711z"/>
					<path style="fill:#313F66;" d="M249.518,223.462c-1.214,0.114-2.888-0.04-4.474-0.657c-2.74-1.066-5.223-3.515-4.634-8.352
						c0.515-4.236,3.38-6.006,5.827-6.742c1.966-0.591,3.664-0.518,3.664-0.518S250.512,210.219,249.518,223.462z"/>
					<path style="fill:#192A47;" d="M249.518,223.462c-1.214,0.114-2.888-0.04-4.474-0.657c-0.317-4.353,0.704-12.034,1.193-15.094
						c1.966-0.591,3.664-0.518,3.664-0.518S250.512,210.219,249.518,223.462z"/>
				</g>
				<path style="fill:#722E2E;" d="M248.746,206.981c0,0-8.514-2.011-9.001-4.578c-0.488-2.567,8.416-1.118,8.393-0.3
					c-0.023,0.818-7.433-2.446-6.994-4.427c0.38-1.673,8.11-0.87,8.192,0.028c0.462,2.433-7.667-1.525-6.289-3.739
					c1.378-2.214,11.641-2.217,17.552-0.771c7.521,1.531,16.42,3.704,17.552,10.544c1.132,6.84-1.203,17.119-1.843,18.3
					c-0.64,1.181-5.954-2.608-7.775-3.789C266.711,217.068,248.746,206.981,248.746,206.981z"/>
				<path style="fill:#FF8D7C;" d="M291.264,243.215c0,0-8.633,11.627-21.846,12.215c-13.214,0.587-18.793-5.344-22.669-9.984
					c9.307-2.144,11.454-4.428,12.066-7.44c0.107-0.526-0.101-1.539-0.797-3.054c-0.439-0.955-0.963-2.051-1.41-3.18
					c-1.204,0-2.429,0.11-4.181-0.235c-3.672-0.725-5.589-4.514-5.475-7.86c0.031-0.906,0.146-2.306,0.303-3.918
					c0.058-0.579,0.12-1.186,0.185-1.806c0.534-5.016,1.304-10.972,1.304-10.972l17.853-0.177l0.124,2.25
					c0.095,1.724,1.508,3.082,3.235,3.11l3.445,3.001l0.42,11.548c0,0,1.175,8.985,6.107,11.804
					C284.863,241.336,291.264,243.215,291.264,243.215z"/>
				<path style="fill:#FF7366;" d="M264.332,232.82c-2.471,1.251-4.266,1.822-6.314,2.132c-0.439-0.955-0.963-2.051-1.41-3.18
					c0,0,4.468-0.331,7.448-1.766c2.979-1.435,5.738-3.586,5.738-3.586S268.801,230.558,264.332,232.82z"/>
				<path style="fill:#FF7366;" d="M254.209,246.419h27.498C281.707,246.419,265.752,251.003,254.209,246.419z"/>
				<g>
					<path style="fill:#FF7366;" d="M269.151,218.687c-0.401-1.805-6.627-0.538-5.716,0.456
						C264.347,220.137,269.483,220.178,269.151,218.687z"/>
					<path style="fill:#F45555;" d="M253.913,223.832c0,0,1.511,1.427,4.281,0.923c2.938-0.839,3.693-2.308,4.239-3.273
						C261.803,221.776,259.083,222.949,253.913,223.832z"/>
					<g>
						<g>
							<g>
								<path style="fill:#192A47;" d="M262.034,215.534c0,0.837-0.679,1.516-1.515,1.516c-0.345,0-0.664-0.115-0.919-0.311
									c-0.363-0.276-0.597-0.623-0.597-1.115c0-0.444,0.191-0.844,0.495-1.121c0,0,0.001,0,0.001-0.001
									c0.271-0.245,0.628-0.394,1.02-0.394C261.355,214.107,262.034,214.696,262.034,215.534z"/>
							</g>
						</g>
						<path style="fill:#192A47;" d="M258.288,211.606l7.302,0.223c0,0-1.322-1.502-3.556-1.669S258.288,211.606,258.288,211.606z"
							/>
					</g>
					<g>
						<g>
							<g>
								<path style="fill:#192A47;" d="M254.551,215.534c0,0.837-0.679,1.516-1.516,1.516c-0.345,0-0.664-0.115-0.919-0.311
									c-0.363-0.276-0.597-0.623-0.597-1.115c0-0.444,0.191-0.844,0.495-1.121c0,0,0.001,0,0.001-0.001
									c0.271-0.245,0.628-0.394,1.02-0.394C253.872,214.107,254.551,214.696,254.551,215.534z"/>
							</g>
						</g>
						<path style="fill:#192A47;" d="M256.046,211.646l-6.624,0.211c0,0,1.199-1.425,3.226-1.584
							C254.675,210.115,256.046,211.646,256.046,211.646z"/>
					</g>
					<path style="fill:#FF7366;" d="M247.257,219.759c0.058-0.579,0.12-1.186,0.185-1.806c1.599-0.324,3.634-0.272,3.859,0.734
						C251.534,219.736,249.06,220.025,247.257,219.759z"/>
					<g>
						<path style="fill:#FF7366;" d="M251.82,218.117c-0.058-0.498,4.033,1.217,4.067,1.96c0.034,0.743-0.691,0.842-1.467,0.471
							C253.643,220.177,251.921,218.995,251.82,218.117z"/>
						<path style="fill:#F45555;" d="M256.837,211.456c0.352,0.025-0.535,4.743-0.889,6.557c-0.068,0.347-0.44,0.538-0.763,0.393
							c-0.684-0.306-1.773-0.705-2.459-0.503c-1.059,0.311,2.202,2.552,2.061,2.855c-0.14,0.304-3.954-1.603-3.463-3.229
							c0.498-1.651,3.706-0.249,3.706-0.249S256.401,211.425,256.837,211.456z"/>
					</g>
				</g>
				<g>
					<g>
						<path style="fill:#313F66;" d="M280.135,209.064l-5.08-0.309c0,0,0.084-1.742-0.064-3.833
							c-0.154-2.194-0.164-5.254-1.412-6.091c-6.006-4.025-16.314-6.257-16.314-6.257c6.717-0.244,19.636,1.59,21.745,6.534
							c0.773,1.812,0.999,4.371,1.1,6.426C280.206,207.527,280.135,209.064,280.135,209.064z"/>
						<path style="fill:#192A47;" d="M280.135,209.064l-5.08-0.309c0,0,0.084-1.742-0.064-3.833c1.173,0.17,3.509,0.274,5.119,0.612
							C280.206,207.527,280.135,209.064,280.135,209.064z"/>
					</g>
					<g>
						<path style="fill:#313F66;" d="M284.431,215.832c-0.255,5.789-3.605,8.574-5.788,8.582h-4.805
							c-2.668,0-5.018-1.786-5.697-4.366c-0.285-1.08-0.475-2.387-0.475-3.949c0-1.091,0.053-2.088,0.14-2.992
							c0.35-3.652,3.476-6.401,7.145-6.337c1.245,0.022,2.491,0.065,3.493,0.148C281.165,207.141,284.831,209.845,284.431,215.832z"
							/>
						<path style="fill:#192A47;" d="M273.838,224.414c-2.668,0-5.018-1.786-5.697-4.366c-0.285-1.08-0.475-2.387-0.475-3.949
							c0-1.091,0.053-2.088,0.14-2.992c0.35-3.652,3.476-6.401,7.145-6.337c0,0-3.418,1.281-3.653,5.396
							C271.025,216.949,270.49,221.312,273.838,224.414z"/>
					</g>
				</g>
			</g>
			<path style="fill:#FFB700;" d="M238.232,248.529c0,0-8.463,2.079-11.73,7.721c-3.266,5.642-25.389,46.918-22.123,73.049
				c35.188,0,41.87,0,41.87,0L238.232,248.529z"/>
			<g>
				<g>
					<path style="fill:#281221;" d="M201.184,332.288c0,0,47.033,30.182,55.584,33.2c33.2-10.061,59.906-34.125,59.906-34.125
						L201.184,332.288z"/>
				</g>
				<g>
					<path style="fill:#FF8D7C;" d="M264.201,366.985c0,0,15.169,10.14,19.998,11.255c4.674,1.079,14.483-1.616,20.612,0.836
						c-5.311,8.182-16.806,25.967-16.806,25.967s-1.306-2.087-5.457-7.808c-2.863-3.946-7.482-6.349-12.084-7.959
						c-12.638-4.423-18.554-5.873-18.554-5.873L264.201,366.985z"/>
					<path style="fill:#47293C;" d="M312.684,380.716l-4.865-1.881c0,0-10.982-3.853-18.433,7.558
						c-7.451,11.411-1.295,21.312-1.295,21.312l5.027,3.573L312.684,380.716z"/>
					<polygon style="fill:#FFFFFF;" points="310.593,379.236 290.376,409.66 294.857,412.845 314.96,382.225 					"/>
					<path style="fill:#47293C;" d="M180.318,332.728c-7.067,6.254-3.564,20.248,2.916,26.403
						c6.479,6.155,19.438,16.684,78.076,29.805c4.374,1.458,4.374,1.458,4.374,1.458s12.418-21.747,12.418-21.261
						c0,0.486-28.321-15.204-47.97-26.622C212.691,332.376,194.411,320.256,180.318,332.728z"/>
				</g>
				<g>
					<path style="fill:#FF8D7C;" d="M245.916,370.475c0,0-16.219,8.358-21.144,8.92c-4.766,0.543-14.207-3.245-20.574-1.502
						c4.351,8.73,13.759,27.702,13.759,27.702s1.534-1.926,6.305-7.141c3.291-3.597,8.153-5.461,12.907-6.541
						c13.057-2.965,19.099-3.736,19.099-3.736L245.916,370.475z"/>
					<path style="fill:#654357;" d="M237.701,369.452l12.762,22.926c0,0,32.513-8.316,53.499-15.403
						c20.987-7.086,33.819-21.447,31.769-33.315s-12.785-12.032-19.057-12.297C311.417,331.14,255.05,361.493,237.701,369.452z"/>
					<path style="fill:#47293C;" d="M318.838,337.907c-2.769,0.621-4.07,9.08-1.394,11.551c2.712,2.504,10.008,2.937,10.596-0.972
						C328.628,344.577,322.313,337.128,318.838,337.907z"/>
					<path style="fill:#654357;" d="M196.191,378.631l5.046-1.318c0,0,11.347-2.585,17.459,9.596
						c6.111,12.181-1.125,21.322-1.125,21.322l-5.399,2.981L196.191,378.631z"/>
					<polygon style="fill:#FFFFFF;" points="198.435,377.397 215.08,409.914 210.266,412.571 193.758,379.873 					"/>
				</g>
			</g>
			<g>
				<path style="fill:#FFD142;" d="M307.637,289.18c0.52,23.57,0.05,47.8,0.05,47.8l-26.69,0.24l-1.15,0.01l-44.6,0.4l0.47-47.2
					c0,0-4.87-35.76-1.42-39.66c1.44-1.63,7.42-3.83,11.44-5.18c2.19-0.73,3.8-1.21,3.8-1.21s6.75,10.41,18.81,9.83
					c12.05-0.58,21.02-12.15,21.02-12.15s1.59,0.54,3.88,1.36c2.72,0.97,6.42,2.33,9.63,3.63c1.91,0.77,3.53,2.02,4.75,3.56
					c1.28,1.61,2.12,3.56,2.39,5.64c0.07,0.57,0.1,1.14,0.09,1.73C309.897,267.96,307.637,283.86,307.637,289.18z"/>
				<path style="fill:#FFB700;" d="M293.248,243.422c-4.002,5.145-13.457,14.594-25.863,14.476
					c-12.467-0.12-19.156-8.364-21.645-12.308c2.186-0.731,3.796-1.212,3.796-1.212s6.751,10.415,18.807,9.836
					c12.055-0.579,21.023-12.151,21.023-12.151S290.956,242.604,293.248,243.422z"/>
				<path style="fill:#FFB700;" d="M307.637,289.18c0.52,23.57,0.05,47.8,0.05,47.8l-26.69,0.24l-0.15-13.83
					c-0.03-3.21,1.58-6.21,4.28-7.95l12.914-8.755c0,0-3.069-13.179-3.969-25.287c-1.361-18.597,7.485-26.528,13.555-30.788
					c1.28,1.61,2.12,3.56,2.39,5.64c0.07,0.57,0.1,1.14,0.09,1.73C309.897,267.96,307.637,283.86,307.637,289.18z"/>
			</g>
			<g>
				<polygon style="fill:#FFFFFF;" points="258.712,334.057 183.564,334.057 172.985,286.603 249.292,286.603 				"/>
				<polygon style="fill:#E4EFF7;" points="258.712,334.057 256.155,334.057 255.839,333.914 246.446,286.603 249.292,286.603 				
					"/>
				<rect x="258.712" y="334.057" style="fill:#BCDAEA;" width="22.679" height="4.356"/>
				<rect x="183.564" y="334.057" style="fill:#E4EFF7;" width="75.148" height="4.356"/>
				<path style="fill:#313F66;" d="M216.289,312.729c0.521,2.125-0.839,3.848-3.038,3.848c-2.199,0-4.403-1.723-4.924-3.848
					c-0.521-2.125,0.839-3.848,3.038-3.848C213.564,308.882,215.768,310.604,216.289,312.729z"/>
				<rect x="261.237" y="335.196" style="fill:#192A47;" width="7.313" height="2.262"/>
				<rect x="265.243" y="335.196" style="fill:#313F66;" width="5.433" height="2.262"/>
				<path style="fill:#FFFFFF;" d="M428.176,500h1.751c-1.364-6.583-7.028-11.464-12.601-13.826
					c-6.511-2.76-13.545-2.989-21.402-2.994h-0.459c-8.815,0-17.736,0.137-26.522,0.408c-4.496,0.139-9.032,0.315-13.483,0.523
					c-1.405,0.065-2.899,0.22-4.343,0.37c-2.734,0.284-5.564,0.575-8.074,0.311c-2.242-0.238-4.713-0.715-6.034-2.444
					c-0.884-1.157-0.896-2.486-0.751-3.398c0.287-1.798,1.413-3.565,2.94-4.614c2.822-1.938,6.531-2.167,9.804-2.368l29.462-1.815
					c2.242-0.139,4.561-0.28,6.776-1.093c2.573-0.943,4.494-2.706,5.27-4.835c1.52-4.165-1.564-8.578-5.29-10.277
					c-3.523-1.607-7.448-1.651-11.244-1.693l-0.365-0.004c-9.302-0.109-17.807-0.027-26.031,0.053
					c-10.306,0.099-20.962,0.2-33.663-0.053c-3.605-0.073-6.633-0.593-9.254-1.588c-3.714-1.411-6.733-5.118-7.344-9.015
					c-0.325-2.081-0.089-5.061,2.89-7.436c2.612-2.085,6.16-2.809,9.605-3.28c5.458-0.748,11.019-1.058,16.526-0.914
					c0.487,0.013,0.976,0.028,1.465,0.044c2.475,0.081,5.033,0.164,7.556-0.212c2.478-0.369,5.938-1.375,8.35-4.07
					c3.797-4.242,2.524-11.04-1.046-14.727c-4.525-4.673-11.885-4.604-17.027-4.146c-7.467,0.665-15.034,0.657-22.489-0.024
					c-4.18-0.381-8.407-1.129-11.027-3.992c-1.604-1.754-2.399-4.21-2.128-6.57c0.27-2.36,1.604-4.572,3.563-5.915
					c1.63-1.117,3.712-1.685,5.726-2.235c2.908-0.795,5.915-1.616,7.852-4.093c2.892-3.697,1.507-9.19-1.434-12.159
					c-2.574-2.598-6.467-4.171-11.572-4.676c-1.713-0.169-3.45-0.227-5.131-0.281c-2.29-0.075-4.658-0.153-6.93-0.521
					c-2.769-0.447-6.495-1.59-8.522-4.492c-1.761-2.522-2.713-5.469-2.613-8.083c0.1-2.607,0.042-10.697-0.002-15.287
					c-0.017-1.839-1.527-3.334-3.366-3.334v1.711c0.904,0,1.647,0.735,1.655,1.639c0.034,3.684,0.104,12.538,0.002,15.206
					c-0.115,3.023,0.923,6.266,2.922,9.129c2.37,3.394,6.557,4.701,9.651,5.201c2.38,0.385,4.804,0.465,7.147,0.541
					c1.652,0.055,3.361,0.11,5.019,0.274c4.697,0.465,8.238,1.87,10.524,4.178c2.431,2.453,3.62,6.936,1.303,9.899
					c-1.589,2.03-4.195,2.742-6.956,3.496c-2.15,0.588-4.374,1.195-6.241,2.475c-2.364,1.62-3.971,4.286-4.298,7.132
					c-0.326,2.846,0.633,5.807,2.565,7.92c3.014,3.294,7.613,4.13,12.135,4.543c7.558,0.689,15.227,0.699,22.798,0.025
					c4.795-0.428,11.631-0.516,15.646,3.632c2.973,3.069,4.114,8.915,1,12.396c-2.07,2.314-5.127,3.19-7.326,3.518
					c-2.369,0.353-4.852,0.272-7.248,0.195c-0.493-0.017-0.985-0.032-1.478-0.045c-5.6-0.144-11.252,0.169-16.802,0.93
					c-3.688,0.505-7.504,1.295-10.44,3.638c-2.825,2.253-4.072,5.463-3.513,9.038c0.7,4.476,4.165,8.732,8.427,10.35
					c2.808,1.066,6.022,1.622,9.826,1.699c12.73,0.256,23.398,0.152,33.714,0.053c8.218-0.078,16.714-0.16,25.996-0.053l0.366,0.004
					c3.617,0.04,7.357,0.082,10.552,1.539c3.048,1.39,5.54,4.99,4.394,8.135c-0.604,1.654-2.152,3.045-4.252,3.814
					c-1.979,0.727-4.172,0.861-6.292,0.991l-29.462,1.815c-3.321,0.205-7.454,0.459-10.667,2.667
					c-1.899,1.305-3.303,3.51-3.66,5.755c-0.285,1.781,0.089,3.409,1.081,4.707c1.725,2.259,4.761,2.847,7.213,3.107
					c2.688,0.284,5.607-0.017,8.431-0.31c1.486-0.154,2.89-0.3,4.247-0.363c4.441-0.207,8.969-0.383,13.456-0.522
					c8.921-0.275,17.99-0.378,26.928-0.408c7.668,0.006,14.521,0.225,20.735,2.859C421.698,489.885,426.816,494.19,428.176,500z"/>
			</g>
			<g>
				<path style="fill:#FFB700;" d="M284.883,318.93c0,0-3.884,1.177-2.943,9.181c0.942,8.004,2.847,16.091,7.533,15.729
					c6.143-0.474,7.063-16.906,4.944-21.85C292.299,317.047,286.884,317.988,284.883,318.93z"/>
				<path style="fill:#FF8D7C;" d="M290.995,321.879c-0.102-0.059-2.398,0.54-4.048,0.716c-2.017,0.215-4.043-0.297-5.718-1.441
					c-1.679-1.147-3.991-2.563-6.207-3.383c-4.164-1.54-8.5-0.799-10.554-0.342c-2.054,0.456-6.674,2.339-6.617,3.366
					c0.057,1.027,1.654,1.255,3.081,0.97c1.426-0.285,5.248-1.426,7.017-1.426c1.768,0,3.48,0.285,3.48,0.285
					s-9.698,7.017-9.926,8.785c-0.228,1.768,1.654,0.97,2.51,0.742c0.856-0.228,4.564-3.195,6.047-3.993
					c1.483-0.799,5.534-3.195,5.534-3.195s-10.097,7.416-10.097,8.899c0,1.483,0.913,1.54,1.997,1.255
					c1.084-0.285,4.906-3.195,6.161-3.879c1.255-0.685,5.648-3.366,5.648-3.366l0.742,0.513c0,0-8.272,5.762-9.47,6.846
					s-1.084,2.396,0.171,2.795c1.255,0.399,8.9-4.963,8.9-4.963s3.822,2.282,7.987,1.997c4.164-0.285,7.074-0.97,7.074-0.97
					S294.532,323.933,290.995,321.879z"/>
				<path style="fill:#FFD142;" d="M331.848,318.533c-1.529,8.475-9.648,12.577-16.714,15.891
					c-7.534,3.53-20.598,8.945-25.661,9.416c2.944-1.648,3.614-6.894,2.707-15.42c-1.156-10.88-7.095-9.125-7.292-9.064
					l18.711-10.239c0,0-0.47-1.509-1.218-3.96c-2.429-7.951-7.784-25.81-9.494-34.177c-2.236-10.947,4.415-24.9,9.99-23.932
					c9.843,1.708,19.647,29.731,21.791,34.643C327.494,288.164,333.379,310.058,331.848,318.533z"/>
				<path style="fill:#FFB700;" d="M316.422,302.165l-12.823,6.952c0,0-0.47-1.509-1.218-3.96L316.422,302.165z"/>
			</g>
		</g>
	</g>
	<g>
		<g>
			<g>
				<path style="fill:#E4EFF7;" d="M151.371,441.317H93.214c-10.661,0-18.258,0-18.258,0l1.771-16.313l13.449-11.037
					c0,0,1.909-0.019,4.644-0.499c1.89-0.331,4.177-0.885,6.5-1.805c5.68-2.25,15.807-15.111,29.631-17.307
					c13.824-2.197,25.398,8.949,27.595,19.504C160.743,424.414,152.71,439.495,151.371,441.317z"/>
				<path style="fill:#BCDAEA;" d="M97.191,432.838c-1.055,3.384-2.242,6.304-3.977,8.479c-10.661,0-18.258,0-18.258,0l1.771-16.313
					l13.449-11.037c0,0,1.909-0.019,4.644-0.499c1.063,1.252,2.693,3.446,3.392,5.816C99.29,422.941,98.93,427.26,97.191,432.838z"
					/>
			</g>
			<g>
				<path style="fill:#E4EFF7;" d="M91.694,445.784c-0.171,0.42-0.426,0.793-0.784,1.086c-0.341,0.28-0.778,0.487-1.326,0.593
					H72.277c-0.467-0.098-0.863-0.216-1.172-0.356c-2.872-1.307-3.804-3.731-3.054-8.235c0.408-2.446,0.893-4.624,1.251-6.118
					c0.302-1.259,0.512-2.034,0.512-2.077c0,0,4.44,2.351,5.844,5.452c1.403,3.101,4.766,2.612,8.618,2.905
					c1.495,0.114,2.738,0.125,3.754,0.201c1.603,0.118,2.639,0.398,3.199,1.497c0.142,0.28,0.283,0.63,0.405,1.025
					c0.139,0.454,0.254,0.968,0.314,1.495C92.049,444.119,92.005,445.028,91.694,445.784z"/>
				<path style="fill:#BCDAEA;" d="M88.03,439.234c-1.298,0.451-2.674,0.888-3.877,1.179c-3.132,0.756-7.51,1.539-10.342-2.401
					c-1.89-2.631-3.589-4.384-4.509-5.259c0.302-1.259,0.512-2.034,0.512-2.077c0,0,4.44,2.351,5.844,5.452
					c1.403,3.101,4.766,2.612,8.618,2.905C85.771,439.147,87.014,439.158,88.03,439.234z"/>
				<path style="fill:#BCDAEA;" d="M91.749,445.866c-0.171,0.42-0.426,0.793-0.784,1.086c-0.789-0.86-2.002-1.032-3.191-1.204
					c-1.761-0.258-3.483-0.689-5.242-0.966c-0.23-0.036-0.165-0.414,0.059-0.4c2.144,0.126,4.304-0.011,6.437,0.28
					C90.025,444.799,91.097,445.158,91.749,445.866z"/>
				<path style="fill:#BCDAEA;" d="M91.948,443.251c-0.677-0.313-1.473-0.426-2.259-0.54c-1.761-0.258-3.483-0.689-5.242-0.966
					c-0.23-0.036-0.165-0.414,0.059-0.4c2.144,0.126,4.303-0.011,6.437,0.28c0.229,0.031,0.461,0.075,0.691,0.131
					C91.772,442.21,91.887,442.724,91.948,443.251z"/>
			</g>
			<g>
				<path style="fill:#FFFFFF;" d="M117.198,439.15c-5.478,2.709-19.657,8.501-23.268,8.618c-0.546,0.019-1.056-0.013-1.514-0.107
					c-0.433-0.089-0.818-0.235-1.14-0.448c-0.943-0.619-1.358-1.817-0.876-3.885c0.076-0.325,0.174-0.672,0.296-1.041
					c0.103-0.313,0.243-0.627,0.417-0.941c1.993-3.599,8.495-7.201,16.422-10.258c-0.739-1.047-5.355-4.678-6.648-7.018
					c-1.293-2.339-0.288-5.694,3.138-6.093c5.295-0.616,18.221,7.756,19.268,11.756C124.338,433.734,122.676,436.443,117.198,439.15
					z"/>
				<path style="fill:#BCDAEA;" d="M96.777,442.305c-1.313,0.352-2.496,1.315-3.287,2.393c-0.695,0.944-0.909,1.909-1.074,2.962
					c-0.433-0.089-0.818-0.235-1.14-0.448c0.159-1.15,0.722-2.301,1.386-3.157c1.014-1.302,2.412-1.926,3.975-2.279
					C96.979,441.698,97.118,442.213,96.777,442.305z"/>
				<path style="fill:#BCDAEA;" d="M95.495,440.289c-1.428,0.263-2.85,1.052-3.964,1.968c-0.4,0.33-0.783,0.686-1.131,1.07
					c0.076-0.325,0.174-0.672,0.296-1.041c0.103-0.313,0.243-0.627,0.417-0.941c1.296-0.896,2.69-1.326,4.237-1.609
					C95.71,439.669,95.858,440.223,95.495,440.289z"/>
			</g>
			<g>
				<path style="fill:#FFFFFF;" d="M95.886,428.472c-0.294,2.349-1.086,5.634-2.941,7.409c-1.688,1.615-3.23,1.718-7.488,2.306
					c-1.62,0.222-6.076,0.314-7.787-0.397c-4.773-1.984-10.241-7.751-10.241-7.751s-8.03,5.973-9.302,5.287
					c-1.273-0.685,1.959-9.497,4.112-12.532c1.114-1.57,2.884-3.272,4.333-4.548c0.64-0.565,1.215-1.044,1.646-1.394
					c0.45-0.367,0.741-0.591,0.775-0.616c0.003-0.001,0.003-0.003,0.003-0.003s-0.126,0-0.334-0.003
					c-1.027-0.019-4.055-0.129-3.974-0.781c0.098-0.783,5.973-1.763,5.973-1.763s-5.288-0.979-3.428-2.055
					c1.861-1.078,8.787-1.918,8.787-1.918s-5.371-11.632-3.932-12.783c1.257-1.005,5.136,1.329,10.279,5.792
					c0.739,0.641,1.506,1.327,2.295,2.054c6.267,5.777,9.902,11.983,11.174,15.411C96.634,422.328,96.348,424.775,95.886,428.472z"
					/>
				<path style="fill:#353535;" d="M86.804,434.189c-0.226,0.103-0.115,0.443,0.128,0.393c1.316-0.274,3.017-0.691,3.538-1.075
					c0.487-0.359,0.902-1.973,1.175-3.333c0.06-0.301-0.233-0.424-0.359-0.145l-1.114,2.176c-0.164,0.364-0.455,0.656-0.818,0.822
					L86.804,434.189z"/>
				<path style="fill:#353535;" d="M88.413,429.234c-0.323-0.001-2.257,1.828-1.971,2.156c0.287,0.328,1.49,0.4,2.087-0.059
					C89.127,430.871,88.736,429.235,88.413,429.234z"/>
				<polygon style="fill:#353535;" points="87.784,431.376 89.833,433.377 90.467,432.677 88.516,430.677 				"/>
				<path style="fill:#353535;" d="M88.215,427.387l4.093-7.452C92.308,419.936,86.112,421.819,88.215,427.387z"/>
				<path style="fill:#353535;" d="M84.61,430.509l-7.207,4.51C77.403,435.019,78.931,428.726,84.61,430.509z"/>
				<path style="fill:#E4EFF7;" d="M67.56,421.526c-0.691-0.539-0.431-1.477-0.171-2.21c0.485-1.369,1.569-3.056,1.603-3.081
					c0.003-0.001,0.003-0.003,0.003-0.003s-1.126,2.737-0.916,4.17c0.171,1.168,1.57-0.526,1.858-0.884
					c0.482-0.599,0.864-1.254,1.225-1.931C70.739,419.701,69.243,422.837,67.56,421.526z"/>
				<path style="fill:#FF8D7C;" d="M84.36,406.696c-1.245-1.2-1.732-1.911-2.31-1.599c-0.056,0.029-0.092,0.082-0.112,0.152
					c-0.19,0.643,0.94,2.773,0.997,2.908c-0.082-0.123-1.308-1.946-1.996-1.861c-0.711,0.089,0.666,3.11,0.666,3.11
					s-4.265-3.687-6.843-7.42c-0.321-0.464-0.602-0.892-0.85-1.282c-0.851-1.343-1.305-2.272-1.548-2.874
					c-0.233-0.579,0.247-1.198,0.865-1.103c1.343,0.207,3.474,1.458,6.129,3.512C81.576,401.958,83.552,404.008,84.36,406.696z"/>
				<path style="fill:#F45555;" d="M81.604,409.406c0,0-4.265-3.687-6.843-7.42c-0.321-0.464-0.602-0.892-0.85-1.282
					c1.475,0.383,5.022,1.559,8.025,4.545c-0.19,0.643,0.94,2.773,0.997,2.908c-0.082-0.123-1.308-1.946-1.996-1.861
					C80.228,406.385,81.604,409.406,81.604,409.406z"/>
			</g>
			<g>
				<path style="fill:#FFFFFF;" d="M156.107,437.869c-1.937,4.717-6.559,9.898-11.658,9.898h-26.4c-0.901,0-1.732-0.307-2.391-0.817
					c-0.305-0.233-0.574-0.512-0.795-0.823c-0.423-0.591-0.678-1.302-0.697-2.061c-0.006-0.226,0.009-0.454,0.047-0.686
					c0.034-0.212,0.084-0.417,0.154-0.615c0.319-0.934,1.016-1.697,2.09-2.046c1.755-0.574,14.418-3.373,19.689-3.437
					c-9.082-5.208-11.191-14.753-8.397-23.453c2.794-8.7,13.814-10.535,17.273-9.906c4.705,0.856,10.849,3.467,13.545,9.688
					c0.507,1.168,0.893,2.466,1.123,3.902C160.626,423.331,158.669,431.624,156.107,437.869z"/>
				<path style="fill:#E4EFF7;" d="M156.107,437.869c-1.937,4.717-6.559,9.898-11.658,9.898H130.37
					c9.897-3.572,13.015-6.773,18.484-13.2c6.446-7.577,8.142-21.488,8.142-21.488l1.571,0.532c0.507,1.168,0.893,2.466,1.123,3.902
					C160.626,423.331,158.669,431.624,156.107,437.869z"/>
				<path style="fill:#BCDAEA;" d="M119.191,442.333c-1.307-0.025-2.614,0.249-3.767,0.879c-0.447,0.246-0.868,0.529-1.259,0.854
					c-0.006-0.226,0.009-0.454,0.047-0.686c0.034-0.212,0.084-0.417,0.154-0.615c0.207-0.12,0.412-0.227,0.61-0.324
					c1.324-0.643,2.743-0.977,4.218-0.932C119.721,441.527,119.721,442.342,119.191,442.333z"/>
				<path style="fill:#BCDAEA;" d="M121.165,444.298c-2.066,0.297-3.975,1.262-5.508,2.653c-0.305-0.233-0.574-0.512-0.795-0.823
					c1.757-1.442,3.893-2.281,6.206-2.559C121.486,443.518,121.574,444.239,121.165,444.298z"/>
			</g>
			<path style="fill:#FFFFFF;" d="M157.23,410.257c-1.033-0.976-2.753-0.172-2.637,1.245c0.071,0.867,0.373,2.015,0.874,3.48
				c1.289,3.768,0.992,15.467-4.957,23.598c-5.949,8.13-12.096,9.915-19.136,10.708c-7.04,0.793-35.496-0.297-40.255-0.297
				c-4.759,0-5.949,9.023,2.181,9.023c8.13,0,29.447,0,35.297,0c5.85,0,16.062-1.983,23.3-8.527
				c7.238-6.544,11.76-13.856,8.587-30.017C159.677,415.357,158.478,411.436,157.23,410.257z"/>
		</g>
	</g>
</g>
</svg>
