<?xml version="1.0" encoding="utf-8"?>
<!-- Generator: Adobe Illustrator 27.5.0, SVG Export Plug-In . SVG Version: 6.00 Build 0)  -->
<svg version="1.1" id="Capa_1" xmlns="http://www.w3.org/2000/svg" xmlns:xlink="http://www.w3.org/1999/xlink" x="0px" y="0px"
	 viewBox="0 0 2122 2122" style="enable-background:new 0 0 2122 2122;" xml:space="preserve">
<rect x="0.012" y="0.012" style="fill:#4762AB;" width="2121.301" height="2121.301"/>
<path style="fill:#275497;" d="M1951.953,1806.398c0,77.531-408.758,140.387-912.984,140.387
	c-504.23,0-912.988-62.855-912.988-140.387c0-77.527,408.758-140.383,912.988-140.383
	C1543.195,1666.016,1951.953,1728.871,1951.953,1806.398z"/>
<g>
	<g>
		<g>
			<g>
				<path style="fill:#728E4A;" d="M1352.359,1119.43v537.051c0,16.855,16.148,30.523,36.07,30.523h348.043
					c19.914,0,36.066-13.668,36.066-30.523V1119.43H1352.359z"/>
				<path style="fill:#A4B961;" d="M1605.813,1119.43v567.574h130.66c19.914,0,36.066-13.668,36.066-30.523V1119.43H1605.813z"/>
			</g>
			<g>
				<path style="fill:#7A9C47;" d="M474.367,735.277h768.793l76.906,669.188H551.277c-45.699,0-82.754-31.336-82.754-70.016
					l-76.91-529.156C391.613,766.617,428.668,735.277,474.367,735.277z"/>
				<path style="fill:#8BAE55;" d="M610.953,1334.449c0,38.68,37.027,70.016,82.754,70.016h697.434
					c45.695,0,82.758-31.336,82.758-70.016l-76.914-529.156c0-38.676-37.059-70.016-82.754-70.016H616.797
					c-45.727,0-82.754,31.34-82.754,70.016L610.953,1334.449z"/>
			</g>
			<g>
				<rect x="613.875" y="1335.66" style="fill:#728E4A;" width="991.938" height="351.344"/>
				<rect x="613.875" y="1582.578" style="fill:#A4B961;" width="991.969" height="104.426"/>
				<g>
					<g>
						<g>
							<path style="fill:#A8BE62;" d="M1596.371,1563.246H650.227c-20.063,0-36.352-12.039-36.352-26.895v-209.539
								c0-10.012,16.855-21.484,36.352-26.891c298.441-42.039,919.242,0,919.242,0c22.352,5.719,29.176,11.973,36.355,26.891
								v226.957C1605.824,1553.77,1606.758,1563.246,1596.371,1563.246z"/>
						</g>
					</g>
					<g>
						<path style="fill:#8BAE55;" d="M1605.824,1329.137H613.875v207.215c0,14.855,16.289,26.895,36.352,26.895h946.145
							c10.387,0,9.453-9.477,9.453-9.477V1329.137z"/>
					</g>
				</g>
			</g>
			<g>
				<g>
					<path style="fill:#914428;" d="M1733.441,1687.359h-57.945l69.418,105.941c0,0,7.539,13.098,25.164,12.984
						c0,0,18.066,2.414,10.098-14.719L1733.441,1687.359z"/>
					<path style="fill:#B4B4B4;" d="M1675.496,1687.359l69.418,105.941c0,0,7.539,13.098,25.164,12.984
						c0,0,14.781,1.938,11.625-10.457c-1.266,1.715-2.773,3.156-4.688,3.977c-7.82,3.32-16.703-0.113-22.188-6.336l-53.953-106.109
						H1675.496z"/>
				</g>
				<g>
					<path style="fill:#914428;" d="M685.922,1687.359h57.949l-69.43,105.941c0,0-7.52,13.098-25.133,12.984
						c0,0-18.086,2.414-10.121-14.719L685.922,1687.359z"/>
					<path style="fill:#B4B4B4;" d="M743.871,1687.359l-69.43,105.941c0,0-7.52,13.098-25.133,12.984
						c0,0-14.801,1.938-11.637-10.457c1.25,1.715,2.758,3.156,4.68,3.977c7.809,3.32,16.695-0.113,22.18-6.336l53.945-106.109
						H743.871z"/>
				</g>
			</g>
			<g>
				<path style="fill:#914428;" d="M387.879,1687.359h57.945l-69.422,105.941c0,0-7.531,13.098-25.145,12.984
					c0,0-18.082,2.414-10.117-14.719L387.879,1687.359z"/>
				<path style="fill:#B4B4B4;" d="M445.824,1687.359l-69.422,105.941c0,0-7.531,13.098-25.145,12.984
					c0,0-14.789,1.938-11.633-10.457c1.258,1.715,2.762,3.156,4.676,3.977c7.82,3.32,16.719-0.113,22.184-6.336l53.937-106.109
					H445.824z"/>
			</g>
			<g>
				<path style="fill:#728E4A;" d="M360.418,1119.43v537.051c0,16.855,16.145,30.523,36.063,30.523h348.047
					c19.914,0,36.074-13.668,36.074-30.523V1119.43H360.418z"/>
				<path style="fill:#A4B961;" d="M613.875,1119.43v536.742c0,30.832,29.523,30.832,29.523,30.832h101.129
					c19.914,0,36.074-13.668,36.074-30.523V1119.43H613.875z"/>
			</g>
		</g>
	</g>
	<g>
		<path style="fill:#004D9D;" d="M1158.992,1002.723c0,0-100.75,4.23-231.516,0.828c-51.379,78.559-82.434,146.105-72.77,225.996
			c0,0,20.406,64.648,120.176,70.719l201.094-31.289l177.672,6.563c0,0,172.992-189.453,61.988-222.652l-214.426,27.781
			L1158.992,1002.723z"/>
		<g>
			<g>
				<path style="fill:#0D3373;" d="M877.838,1147.534c9.137-8.89,17.094-18.952,25.533-28.512
					c8.398-9.513,17.109-18.746,25.999-27.8c7.732-7.875,15.387-16.011,22.339-24.59c3.465-4.274,7.506-7.417,11.974-10.58
					c3.876-2.744,6.044-5.337,8.947-9.029c0.166-0.211-0.569-0.286-0.712-0.146c-3.625,3.51-8.936,6.215-13.174,9.035
					c-4.575,3.045-9.202,5.943-13.497,9.386c-9.556,7.659-18.067,15.856-26.651,24.562c-8.924,9.052-17.598,18.35-26.03,27.859
					c-7.845,8.846-16.06,17.957-21.71,28.373C869.435,1148.71,876.563,1148.774,877.838,1147.534L877.838,1147.534z"/>
			</g>
		</g>
		<g>
			<path style="fill:#F7B6A0;" d="M1061.723,628.129l-91.488,1.914l-2.086-99.844l91.481-1.918
				C1059.629,528.281,1051.52,607.152,1061.723,628.129z"/>
			<path style="fill:#F29381;" d="M1057.055,603.047c-20.766-1.699-40.477-2.496-60.852-8.461
				c-9.766-2.859-18.699-6.438-26.941-11.199l-1.113-53.188l91.481-1.918C1059.629,528.281,1055.137,572.047,1057.055,603.047z"/>
			<g>
				<path style="fill:#55240D;" d="M1118.563,456.953c-5.773,14.5-11.684,31.348-21.754,44.063
					c-11.484,14.535-28.34,15.559-36.109-2.578c-7.309-17.074-7.055-38.164-3.898-55.707c1.715-9.586,4.949-20.441,13.914-26.965
					c14.008-10.188,32.445-7.008,42.859,5.051C1123.324,432.129,1123.625,444.18,1118.563,456.953z"/>
				<g>
					<path style="fill:#F7B6A0;" d="M1103.824,481.332c-0.961,17.434-3.531,34.809-8.125,51.66
						c-4.664,17.102-11.031,49.145-30.324,56.289c-5.961,2.207-10.813,2.043-17.695,1.613
						c-26.277-1.644-54.281-19.125-70.984-38.633c-31.152-36.363-31.063-124.578,0.145-158.77
						c28.484-31.211,119.074-15.148,125.156,34.617C1104.098,445.285,1104.824,463.305,1103.824,481.332z"/>
				</g>
				<path style="fill:#703218;" d="M1084.18,524.012c-1.891,0.855-5.75,2.773-7.805,3.285c-7.742,1.93-14.836,1.039-22.477-1.078
					c-10.789-2.996-21.504-9.672-32.918-5.824c-6.887,2.32-12.813,3.859-20.082,3.524c-9.195-0.426-17.383-6.656-21.035-14.977
					c-2.828-6.434-3.363-14.824-7.094-20.652c-4.758-7.426-11.41-12.484-19.371-15.047c0.164,30.484,1.293,74.473,16.672,92.422
					c16.699,19.508,59.008,37.352,85.281,39c6.879,0.426,11.73,0.59,17.691-1.617c19.293-7.145,17.992-52.953,22.656-70.055
					c1.063-3.91,1.996-7.852,2.844-11.813C1094.246,520.488,1089.754,521.477,1084.18,524.012z"/>
				<g>
					<g>
						<path style="fill:#F49C81;" d="M968.54,471.066c0.804-5.928-3.774-10.042-7.683-13.697c-3.708-3.467-9.316-3.254-13.689-1.646
							c-3.26,1.199-4.732,3.896-6.078,7.336c-2.064,5.271-3.734,10.746-3.226,16.473c0.023,0.262,0.665,0.236,0.725,0
							c1.259-5.045,3.256-18.752,9.776-19.631c0.947-0.128,1.863-0.559,2.762-0.858c2.1-0.701,3.236,1.112,4.759,2.295
							c3.765,2.926,4.515,7.251,7.659,10.393C964.505,472.69,968.301,472.834,968.54,471.066L968.54,471.066z"/>
					</g>
				</g>
				<path style="fill:#55240D;" d="M976.703,456.578c-1.156,4.371-2.063,24.387-3.469,28.254c-1.391,3.879-10.18-2.277-10.18-2.277
					c-6.199-6.535,1.813-21.254-9.004-23.629c-11.742-2.59,5.406,70.625,5.133,78.609c-8.992-9.539-40.574-58.777-47.215-92.879
					c-4.914-25.25,0.797-40.512,6.641-50.281c28.352-47.395,38.57-44.422,64.867-40.746c11.996,1.68,21.184,28.762,25.57,40.621
					c4.707,12.695-3.93,22.395-12.621,30.547C985.551,434.996,982.043,436.586,976.703,456.578z"/>
				<g>
					<path style="fill:#F7B6A0;" d="M943.848,459.156c-12.289,10.617-7.621,44.516,14.566,57.109
						c6.16-5.926,7.184-22.965,8.488-31.32c1.277-8.199,2.105-16.09-2.445-23.434C963.055,459.254,952.879,451.352,943.848,459.156z
						"/>
					<g>
						<g>
							<g>
								<path style="fill:#F29381;" d="M957.391,483.266c-0.217,1.427,0.029,4.592-1.189,5.549
									c-0.395,0.309-0.815,0.533-1.264,0.745c0.609-0.288,1.874,0.743,1.201-0.104c-1.143-1.438-1.316-3.56-1.484-5.31
									c-0.293-3.07,0.907-7.656-1.564-10.037c-0.624-0.603-2.12-0.52-2.76,0c-1.768,1.431-1.854,3.75-1.794,5.838
									c0.082,2.938,0.351,5.988,1.428,8.748c1.056,2.701,3.734,3.632,6.461,3.3c1.519-0.185,2.851-1.005,3.994-1.972
									c1.796-1.518,0.7-4.737,0.557-6.758C960.887,482.012,957.577,482.044,957.391,483.266L957.391,483.266z"/>
							</g>
						</g>
						<g>
							<g>
								<path style="fill:#F29381;" d="M957.545,474.9c-1.703-5.547-9.419-4.449-12.705-1.327c-5.639,5.354-2.33,16.54,3.385,20.386
									c0.377,0.253,2.734,0.64,2.542-0.338c-0.634-3.23-2.507-6.164-3.244-9.409c-0.79-3.477,2.286-16.034,7.167-8.925
									C955.183,476.006,957.907,476.08,957.545,474.9L957.545,474.9z"/>
							</g>
						</g>
					</g>
				</g>
				<g>
					<g>
						<g>
							<path style="fill:#55240D;" d="M1051.967,465.549c-2.625-9.785-17.102-10.282-25.027-10.239
								c-6.666,0.036-18.728,6.198-13.258,14.197c0.088,0.054,0.176,0.107,0.264,0.161c2.607-0.859,5.003-2.531,7.834-2.552
								c3.463-0.024,6.886-0.638,10.355-0.728c3.701-0.096,7.242-0.023,10.818,0.938c1.744,0.468,3.389,1.325,5.201,1.412
								c0.925,0.044,2.617-0.229,3.332,0.563C1051.881,469.741,1052.094,466.022,1051.967,465.549L1051.967,465.549z"/>
						</g>
					</g>
					<g>
						<g>
							<path style="fill:#55240D;" d="M1080.539,469.629c0.534-0.31,1.432,0.172,1.931,0.355c1.765,0.65,3.739,0.372,5.604,0.48
								c4.87,0.285,10.338,1.017,15.015,2.285c0.072-0.045,0.145-0.088,0.217-0.133c0.348-0.353,0.694-0.705,1.042-1.059
								c0.739-0.75,0.438-3.262,0-4.094c-2.598-4.939-10.083-5.083-15.108-5.033c-3.147,0.031-7.785,0.176-8.895,3.922
								C1080.254,466.658,1080.186,469.832,1080.539,469.629L1080.539,469.629z"/>
						</g>
					</g>
					<path style="fill:#7F482E;" d="M1085.164,485.617c-0.332,4.477,1.32,8.227,3.695,8.41c2.375,0.184,4.578-3.277,4.922-7.75
						c0.352-4.465-1.305-8.23-3.688-8.406C1087.719,477.691,1085.512,481.16,1085.164,485.617z"/>
					<path style="fill:#7F482E;" d="M1034.664,484.875c-0.352,4.469,1.305,8.234,3.684,8.41c2.375,0.188,4.578-3.281,4.93-7.75
						c0.332-4.457-1.316-8.223-3.695-8.402C1037.207,476.945,1035.004,480.418,1034.664,484.875z"/>
					<g>
						<g>
							<path style="fill:#F18C7E;" d="M1080.456,535.159c-5.253,4.235-11.136,6.346-17.933,5.619
								c-5.582-0.597-9.508-6.807-14.215-9.468c-0.803-0.455-5.315-0.828-4.998,1.014c0.611,3.547,5.318,6.396,7.941,8.617
								c2.87,2.428,7.063,3.191,10.707,3.581c7.509,0.804,18.959-0.646,22.112-8.616
								C1084.68,534.369,1081.136,534.611,1080.456,535.159L1080.456,535.159z"/>
						</g>
					</g>
					<g>
						<g>
							<path style="fill:#F29381;" d="M1074.018,478.758c-0.931,4.704-2.406,9.277-3.319,13.984
								c-0.633,3.264,3.007,7.844,4.632,10.353c1.955,3.022,4.104,6.827,2.352,10.37c-1.623,3.282-6.38,4.073-9.581,3.523
								c-3.599-0.617-7.206,2.781-2.061,3.664c6.262,1.074,18.638-0.346,20.057-8.347c0.933-5.253-3.302-9.48-6.188-13.367
								c-4.554-6.134-2.203-13.136-1.934-20.181C1078.026,477.393,1074.281,477.428,1074.018,478.758L1074.018,478.758z"/>
						</g>
					</g>
				</g>
			</g>
		</g>
		<path style="fill:#F7B6A0;" d="M1101.477,760.836c-12.242-74.664,25.277-78.543,25.277-78.543
			c42.215-10.813,61.844,53.414,61.844,53.414s30.441,142.082,30.035,205.77c0,0-44.766,27.789-65.898-11.898L1101.477,760.836z"/>
		<polygon style="fill:#F7B6A0;" points="984.84,615.769 843.504,667.781 921.32,1016.238 1107.594,1016.238 1158.824,674.711 
			1050.996,615.769 		"/>
		<path style="fill:#007AB9;" d="M1058.039,615.769l94.457,47.508l-39.031,350.43c-37.656,19.137-58.758,6.953-116.969,6.867
			c-18.613-0.02-73.773,10.176-81.859-9.363c-4.914-11.879-18.758-36.894-18.332-49.504c0.43-12.637-13.418-33.144-14.449-45.762
			c-1.023-12.594-0.789-25.121-6.965-36.445c-11.492-21.09-11.324-52.32-16.559-76.008c-5.309-24.043-8.926-35.953-8.934-60.68
			c0-13.133-11.266-27.836-14.488-40.613c-3.422-13.578-1.504-29.945,11.906-36.074c11.906-5.453,25.469-8.856,37.816-13.418
			l81.199-30.879C965.832,621.828,1040.004,645.465,1058.039,615.769z"/>
		<path style="fill:#007AB9;" d="M1114.863,884.012l-23.023-125.414c0,0-33.469-72.922,24.836-111.406
			c0,0,62.895,9.887,74.523,69.144l31.527,125.199C1222.727,841.535,1219.555,872.711,1114.863,884.012z"/>
		<path style="fill:#007AB9;" d="M902.387,1164.246c16.398-27.539,21.367-62.113,42.262-86.988
			c19.934-23.727,56.027-47.863,88.484-46.188c20.016,1.031,48.516,29.27,69.094,24.895c24.715-5.254,67.684,18.895,88.223,4.848
			c16.484-11.27-32.871-102.469-27.863-122.633c5.48-22.063,3.578-41.297-3.758-61.758c-8.953-24.984-20.102-20.078-25.898-46.012
			c-5.008-22.418-10.09-44.227-27.59-60.484c-50.992-47.379-138.445-39.254-197.652-15.25c-9.121,3.699-14.461,6.586-17.598,10.336
			c-4.883,5.828-21.457-2.238-21.738,14.035c-0.5,28.227-5.566,25.09-5.516,53.34c0.039,20.234-4.152,54.676-8.129,74.305
			c-5.894,29.133-3.359,65.578-11.203,94.348c-13.887,50.926-18.691,152.613-10.078,206.652
			C833.426,1207.691,881.309,1212.816,902.387,1164.246z"/>
		<path style="fill:#F7B6A0;" d="M1104.762,1046.973c-91.855-13.098-317.055,10.523-326.059-94.992
			c-7.367-86.285,21.723-222.332,61.313-253.281c29.398-22.988,68.898-10.215,84.695,24.269
			c17.586,38.406-36.258,170.91-44.961,226.035c0,0,78.977,53.93,245.746,71.191L1104.762,1046.973z"/>
		<path style="fill:#007AB9;" d="M748.352,922.551l68.18-216.68c13.867-36.605,37.398-42.754,42.184-42.754
			c72.836-0.008,79.258,89.934,79.258,89.934l-35.254,158.906C902.719,911.957,823.383,957.406,748.352,922.551z"/>
		<path style="fill:#F7B6A0;" d="M1091.07,1029.043c3.781-5.008,24.621-8.203,34.426-8.848c26.805-1.77,49.875-0.059,74.785,6.34
			c8.566,2.195,27.16,7.113,35.066,11.473c4.82,2.66,14.219,4.832,12.641,10.816c-3.762,2.027-25.441-2.297-39.711-5.641
			c20.816,6.074,25.68,11.789,26.098,14.547c-5.082,5.602-29.48-5.414-46.652-9.148c-5.547-1.207,32.598,13.172,13.953,14.723
			c-4.035,0.332-30.285-7.223-42.719-10.043c1.336,1.293,17.832,9.875,17.422,11.348c-0.352,3.84-16.824-0.219-25.051-2.441
			C1140.266,1059.176,1076.141,1048.789,1091.07,1029.043z"/>
		<path style="fill:#F7B6A0;" d="M1353.691,976.344c4.57-4.308,25.652-3.996,35.422-3.004c26.734,2.719,49.184,8.246,72.691,18.699
			c8.078,3.59,25.594,11.531,32.66,17.144c4.324,3.426,13.223,7.133,10.672,12.766c-4.055,1.379-24.707-6.488-38.227-12.172
			c19.527,9.465,23.367,15.902,23.316,18.695c-5.941,4.684-28.168-10.246-44.48-16.785c-5.262-2.113,29.953,18.406,11.316,16.84
			c-4.039-0.34-28.672-12.16-40.461-17.008c1.117,1.496,15.941,12.699,15.297,14.09c-0.988,3.727-16.555-3.023-24.285-6.578
			C1397.195,1014.242,1335.691,993.328,1353.691,976.344z"/>
		<path style="fill:#F7B6A0;" d="M1215.742,896.352l183.266,90.164l-18.371,16.207c0,0-196.5-28.785-224.453-61.289
			C1156.184,941.434,1175.605,887.055,1215.742,896.352z"/>
		<g>
			<g>
				<path style="fill:#0059A6;" d="M1072.451,630.465c0.013-0.252,0.021-0.505,0.028-0.758c0.073-2.392-5.038-1.578-6.119-0.813
					c-6.841,4.842-15.165,8.703-23.503,10.108c-3.683,0.621-7.543,0.391-11.172,1.305c-2.111,0.531-4.23,0.073-6.362,0.361
					c-2.362,0.318-4.522,0.66-6.931,0.459c-4.076-0.34-7.622-0.914-11.738-0.313c-4.119,0.604-8.951-0.618-12.946-1.688
					c-3.135-0.84-6.064-2.137-9.146-3.155c-1.951-0.646-4.098-0.904-6.139-1.009c-1.431-0.074-3.524-1.817-4.715-2.5
					c-1.658-0.948-10.211-1.216-8.6,2.453c1.557,3.543,4.725,5.668,8.664,6.03c4.834,0.444,8.831,2.573,13.526,3.552
					c5.31,1.108,10.434,2.156,15.873,2.5c2.87,0.182,5.604-0.219,8.433-0.67c2.571-0.41,6.006,0.701,8.702,0.639
					c4.616-0.105,9.6-0.678,14.151-1.473c5.095-0.889,10.281-1.373,15.307-2.637c5.166-1.3,10.207-3.615,14.903-6.077
					c2.682-1.405,7.519-3.658,7.811-7.073c-1.647,0.463-3.295,0.926-4.941,1.389c0.386,0.144,0.772,0.285,1.16,0.425
					C1069.553,631.83,1072.393,631.874,1072.451,630.465L1072.451,630.465z"/>
			</g>
		</g>
		<g>
			<g>
				<path style="fill:#0059A6;" d="M879.963,663.318c4.344,6.58,8.772,12.896,13.837,18.985c5.918,7.114,9.493,15.468,13.284,23.819
					c3.953,8.709,3.424,18.79,4.004,28.067c0.524,8.387-0.883,16.927-1.766,25.408c-1.029,9.894-3.414,19.644-5.275,29.406
					c-1.824,9.566-3.149,19.043-4.436,28.693c-1.289,9.678-3.84,19.155-5.057,28.861c-1.274,10.168-0.221,20.434-1.407,30.594
					c-0.093,0.791,2.215,0.83,2.45,0.162c3.099-8.793,4.402-17.938,6.055-27.075c1.869-10.333,4.766-20.464,7.47-30.599
					c1.298-4.865,2.251-9.827,3.56-14.699c1.436-5.348,3.199-10.596,4.635-15.938c2.713-10.107,4.699-20.752,5.879-31.146
					c0.494-4.363,1.552-8.98,1.572-13.354c0.018-3.704,0.842-6.626,0.098-10.313c-0.893-4.424-0.226-9.174-1.039-13.678
					c-0.887-4.902-1.879-9.729-3.426-14.471c-1.43-4.383-4.161-8.741-6.207-12.875c-2.135-4.313-5.193-8.251-8.342-11.861
					c-6.294-7.217-14.156-12.849-21.473-18.898C883.573,661.74,878.926,661.748,879.963,663.318L879.963,663.318z"/>
			</g>
		</g>
		<g>
			<g>
				<path style="fill:#0059A6;" d="M1085.635,632.21c2.373,5.882,7.458,9.974,10.466,15.489c1.74,3.192,3.123,6.566,4.863,9.764
					c2.007,3.688,4.77,8.584,5.481,12.728c1.385,8.062,2.203,16.294,3.341,24.398c0.552,3.927,1.389,7.908,1.009,11.87
					c-0.392,4.084-0.75,7.941-0.737,12.066c0.024,8.068,1.032,15.986,1.158,24.025c0.136,8.643-0.286,17.31-0.263,25.958
					c0.01,3.606,0.021,7.214,0.03,10.821c0.011,3.839,0.774,7.525,0.785,11.366c0.011,4.07,1.79,8.562,2.573,12.581
					c0.691,3.546,1.451,7.057,2.463,10.525c0.262,0.898,3.335,0.815,3.215-0.213c-0.85-7.306-1.56-15.574-1.077-22.893
					c0.258-3.913-0.733-7.497-0.723-11.366c0.012-4.229,0.023-8.458,0.035-12.686c0.022-8.035,0.36-16.06,0.399-24.093
					c0.043-8.623-1.037-17.189-1.012-25.852c0.011-3.5,0.283-6.781,0.805-10.24c0.591-3.914-0.498-7.978-0.937-11.87
					c-0.981-8.735-2.069-17.62-3.506-26.292c-0.479-2.896-2.691-6.006-3.969-8.623c-1.871-3.834-3.922-7.553-5.941-11.317
					c-3.8-7.08-9.908-10.698-15.003-16.613C1088.468,631.018,1085.058,630.779,1085.635,632.21L1085.635,632.21z"/>
			</g>
		</g>
		<g>
			<g>
				<path style="fill:#0059A6;" d="M1104.216,840.828c0.548,3.394,0.381,6.859,1.04,10.255c0.712,3.669,2.088,7.13,3.074,10.733
					c1.908,6.972,4.158,13.857,7.796,20.063c4.149,7.078,3.568,15.284,3.862,23.135c0.118,3.16-0.316,6.053-1.059,9.095
					c-0.335,1.376-1.026,6.427-2.537,7.092c-3.294,1.452,1.212,3.291,2.756,3.261c6.043-0.12,7.186-4.209,8.108-9.411
					c1.35-7.607,1.034-16.527-0.442-24.136c-0.794-4.095-2.335-7.932-4.494-11.479c-2.63-4.319-4.487-8.642-6.472-13.34
					c-3.547-8.4-6.045-17.395-10.561-25.339C1105.146,840.51,1104.157,840.463,1104.216,840.828L1104.216,840.828z"/>
			</g>
		</g>
		<g>
			<g>
				<path style="fill:#0059A6;" d="M942.924,1042.547c-5.166,2.539-10.488,3.549-15.531,6.507
					c-3.965,2.325-7.508,4.917-10.504,8.435c-6.712,7.879-11.406,16.843-13.232,27.072c-0.796,4.465-1.151,9.265-1.453,13.799
					c-0.394,5.912-3.321,12.231-5.29,17.8c-1.604,4.539-3.703,8.874-6.154,13.011c-2.022,3.41-5.663,4.986-7.593,8.243
					c-2.317,3.91,9.195,4.642,11.256,2.325c1.016-1.143,2.303-1.556,3.493-2.474c1.484-1.145,2.621-2.777,3.74-4.264
					c2.712-3.602,4.438-7.977,6.026-12.156c1.81-4.762,3.028-9.765,4.434-14.653c1.358-4.729,1.415-9.343,1.995-14.174
					c0.555-4.627,0.652-9.041,1.637-13.646c1.09-5.097,3.794-9.808,6.508-14.188c5.558-8.972,14.52-14.149,22.138-21.081
					C945.056,1042.5,943.266,1042.379,942.924,1042.547L942.924,1042.547z"/>
			</g>
		</g>
		<g>
			<rect x="1067.434" y="1063.352" style="fill:#B2B2B2;" width="322.945" height="15.445"/>
			<g>
				<g>
					<polygon style="fill:#FFFFFF;" points="1483.66,1078.797 1183.113,1078.797 1209.469,866.633 1510.031,866.633 					"/>
					<polygon style="fill:#DADADA;" points="1172.402,1078.797 1183.113,1078.797 1209.469,866.633 1198.77,866.633 					"/>
				</g>
			</g>
			<path style="fill:#DADADA;" d="M1370.613,967.609c0,13.277-10.773,24.039-24.043,24.039c-13.281,0-24.039-10.762-24.039-24.039
				c0-13.273,10.758-24.039,24.039-24.039C1359.84,943.57,1370.613,954.336,1370.613,967.609z"/>
		</g>
		<g>
			<path style="fill:#2C4367;" d="M1056.52,1300.266"/>
			<polygon style="fill:#F6AD96;" points="1196.414,1236.719 1127.664,1264.723 1145.34,1318.176 1215.375,1294.535 			"/>
			<g>
				<polygon style="fill:#F6AD96;" points="1289.84,1233.25 1363.797,1239.781 1362.617,1296.066 1288.73,1294.078 				"/>
				<path style="fill:#8CD0E5;" d="M1341.344,1296.223c31.906,8.789,122.945,1.422,156.09-11.149
					c40.117-15.23,37.344-95.527-13.18-84.02c-45.773,10.43-93.879,29.125-140.559,32.914
					C1343.695,1233.969,1315.902,1255.527,1341.344,1296.223z"/>
			</g>
			<path style="fill:#004D9D;" d="M1341.344,1296.223c11.41-23.504,4.969-72.551,4.969-72.551l-39.887-20.953
				c-49.215-38.281-107.621-63.148-155.82-102.695c-37.32-30.621-73.82-81.727-128.055-76.301
				c-36.676,3.668-61.953,31.238-82.981,58.902c-35.07,46.102-84.863,83.715-84.863,146.922c0,53.391,70.813,93.441,109.008,87.422
				c28.238-4.465,70.656-40.035,86.344-61.48l42.133-51.965c0,0,16.742,54.559,179.398,88.793
				C1271.59,1292.316,1319.922,1302.664,1341.344,1296.223z"/>
			<g>
				<g>
					<path style="fill:#0D3373;" d="M1052.527,1027.073c5.02,1.78,9.046,4.94,13.384,7.923c5.276,3.629,10.239,7.718,15.194,11.768
						c10.376,8.48,21.01,16.556,32.295,23.789c17.855,11.446,34.143,25.71,50.127,39.576c17.493,15.174,33.873,31.672,52.015,46.07
						c21.758,17.271,45.184,32.539,68.74,47.221c4.972,3.1,9.939,6.206,14.896,9.331c6.316,3.983,12.681,6.564,19.452,9.602
						c0.936,0.419,5.769,0.327,4.041-1.528c-2.165-2.324-3.752-4.795-6.127-6.952c-2.548-2.314-5.559-4.108-8.403-6.032
						c-6.12-4.139-12.243-8.28-18.423-12.331c-11.606-7.606-23.269-15.112-34.675-23.019
						c-21.514-14.915-41.062-31.803-60.715-49.021c-17.077-14.96-34.928-29.103-53.313-42.421
						c-7.929-5.744-16.072-11.046-24.46-16.088c-12.363-7.433-23.629-16.564-35.469-24.772
						c-8.564-5.938-17.336-11.367-27.536-13.972C1052.883,1026.045,1051.246,1026.619,1052.527,1027.073L1052.527,1027.073z"/>
				</g>
			</g>
			<g>
				<g>
					<path style="fill:#0D3373;" d="M1156.563,1244.115c15.899-2.994,30.484-11.972,44.498-19.679
						c18.184-10,36.851-20.535,53.332-33.187c12.638-9.701,25.842-18.809,37.679-29.513c20.313-18.368,41.158-36.214,61.198-54.88
						c14.544-13.547,28.424-26.98,44.948-38.179c8.042-5.451,16.443-10.356,24.922-15.093c8.323-4.648,18.233-8.313,25.555-14.409
						c3.977-3.312-6.013-4.403-7.786-3.815c-12.909,4.283-25.277,12.374-37.004,19.225c-11.354,6.633-22.391,13.876-32.688,22.063
						c-11.322,9.003-21.165,19.563-31.671,29.463c-10.326,9.729-21.147,18.923-31.832,28.253
						c-14.983,13.083-28.761,27.08-45.254,38.263c-8.093,5.486-16.347,10.605-24.848,15.432
						c-9.188,5.216-17.94,11.292-26.953,16.814c-11.74,7.194-23.438,14.452-35.23,21.56c-7.857,4.735-16.359,8.781-23.268,14.876
						C1149.735,1243.45,1155.389,1244.336,1156.563,1244.115L1156.563,1244.115z"/>
				</g>
			</g>
			<g>
				<g>
					<path style="fill:#0D3373;" d="M1060.673,1247.506c5.177-7.222,12.004-13.832,19.904-17.985
						c2.85-1.498,7.244-3.896,10.561-3.041c4.012,1.032,7.853,3.218,11.385,5.32c13.867,8.254,27.437,24.13,45.342,20.889
						c2.193-0.396,6.562-2.878,2.511-4.66c-3.822-1.683-7.901-2.401-11.709-4.151c-4.569-2.101-8.778-4.929-12.914-7.763
						c-8.271-5.667-16.422-11.598-26.344-13.925c-19.048-4.468-34.823,8.799-43.847,24.625
						C1054.572,1248.55,1059.721,1248.833,1060.673,1247.506L1060.673,1247.506z"/>
				</g>
			</g>
			<path style="fill:#004D9D;" d="M1513.316,1026.348c74.234,9.672,55.031,78.586,29.004,102.461
				c-70.082,64.273-171.164,112.668-259.352,146.73c-2.988,1.16-86.555,32.336-100.539,37.91
				c17.371-41.949-21.398-71.172-21.398-71.176c0,0,98.699-47.773,164.91-117.383
				C1325.941,1124.891,1424.887,1007.625,1513.316,1026.348z"/>
			<path style="fill:#8CD0E5;" d="M1165.73,1312.066c-27.91,17.781-117.094,37.535-152.457,35.266
				c-42.824-2.75-63.805-80.313-12.141-84.176c46.82-3.508,98.301,0.215,144.027-9.906
				C1145.16,1253.25,1178.066,1265.68,1165.73,1312.066z"/>
		</g>
		<path style="fill:#55240D;" d="M989.488,377.023c-0.164,14.859,31.231,49.004,46.93,47.484c-2.984-7.07-2.809-15.133-4.297-22.105
			c13.328,9.656,32.301,24.074,47.113,30.742c6.422,2.895,23.531,8.793,29.082,4.09c3.605-3.055,1.242-9.336,3.406-12.809
			c4.035-6.48,3.688-2.586,9.977-6.246c34.52-20.121,0.129-74.91-26.191-90.105c-26.543-15.328-67.031-16.762-95.758-6.895
			c-12.199,4.191-24.926,11.023-31.113,22.453c-5.086,9.375-10.465,41.715,4.637,44.617L989.488,377.023z"/>
	</g>
</g>
</svg>
